<svg width="54" height="54" viewBox="0 0 54 54" fill="none" xmlns="http://www.w3.org/2000/svg">
<mask id="mask0" mask-type="alpha" maskUnits="userSpaceOnUse" x="0" y="0" width="54" height="54">
<rect width="54" height="54" fill="#C4C4C4"/>
</mask>
<path d="M51.8746 24.9824C48.8817 23.4937 46.1138 21.5903 43.6526 19.3284C44.9186 14.535 45.8582 9.66127 46.4648 4.74077C46.6485 4.0877 46.3461 3.39571 45.742 3.08692C45.1641 2.86481 44.5096 3.0798 44.176 3.60137C39.8249 8.80607 33.8558 8.20837 27.54 7.57846C21.8082 7.00496 15.9153 6.43383 11.2286 10.3719C10.9184 8.12079 9.02225 6.42641 6.75059 6.37036C4.47893 6.31431 2.50152 7.91313 2.08069 10.1462C1.65985 12.3792 2.91966 14.5881 5.05589 15.3628L14.5135 49.2215C14.6871 49.8435 15.101 50.371 15.6639 50.6876C16.2268 51.0042 16.8925 51.084 17.5143 50.9094L18.2769 50.6912C18.8965 50.5187 19.422 50.1068 19.7375 49.5464C20.053 48.986 20.1326 48.3231 19.9588 47.7039L16.9628 36.9717C21.3393 31.3651 27.4389 31.9595 33.8966 32.6049C40.3721 33.2506 47.07 33.9206 51.9945 28.0315L51.9969 28.0286C52.4879 27.4167 52.6902 26.6223 52.5517 25.8501C52.4773 25.4694 52.2258 25.1471 51.8746 24.9824ZM3.68719 11.0084C3.68719 9.37813 5.00875 8.05656 6.63898 8.05656C8.26922 8.05656 9.59078 9.37813 9.59078 11.0084C9.58847 11.5466 9.43746 12.0737 9.15442 12.5315C9.04706 12.6679 8.93515 12.7887 8.82981 12.9319C8.81756 12.9566 8.80661 12.982 8.797 13.0078C7.97554 13.9028 6.68855 14.2008 5.55729 13.7582C4.42604 13.3155 3.68312 12.2231 3.68719 11.0084ZM18.2679 48.7192C18.1707 48.8911 18.0085 49.0169 17.8178 49.0683L17.0551 49.2866C16.6586 49.3948 16.249 49.1627 16.138 48.7669L6.88356 15.6346C7.65412 15.595 8.40236 15.3623 9.05946 14.9579L15.2209 37.0079L15.2237 37.0142L18.3345 48.1583C18.3878 48.3466 18.3639 48.5485 18.2679 48.7192ZM50.699 26.9513C46.3483 32.1536 40.3823 31.5577 34.0642 30.9264C27.7727 30.2976 21.2799 29.6491 16.4097 34.9915C14.8231 29.324 13.2394 23.6554 11.6585 17.9855L10.4484 13.6481C10.4984 13.5763 10.5439 13.5015 10.5898 13.4266C14.956 8.02612 20.9913 8.62019 27.3724 9.25676C33.4774 9.86618 39.7796 10.4965 44.6521 5.58464C44.0578 10.0832 43.1768 14.5392 42.0144 18.9254C41.8462 19.5157 42.0324 20.15 42.493 20.5557C45.0247 22.8714 47.8566 24.8359 50.9122 26.3963C50.8911 26.5968 50.8175 26.7882 50.699 26.9513Z" fill="white"/>
</svg>
