<svg width="54" height="54" viewBox="0 0 54 54" fill="none" xmlns="http://www.w3.org/2000/svg">
<mask id="mask0" mask-type="alpha" maskUnits="userSpaceOnUse" x="0" y="0" width="54" height="54">
<rect width="54" height="54" fill="#C4C4C4"/>
</mask>
<path d="M31.7311 25.6471C38.8942 23.5581 43.8749 16.9345 43.8749 9.45004C43.8749 9.07676 43.5725 8.77507 43.1999 8.77507H36.4497V7.42497C36.4497 7.05169 36.148 6.75 35.7747 6.75H18.2247C17.8521 6.75 17.5497 7.05169 17.5497 7.42497V8.77499H10.8C10.4274 8.77499 10.125 9.07668 10.125 9.44996C10.125 16.9359 15.1075 23.5604 22.2727 25.6482C22.546 26.0316 22.8292 26.4089 23.1245 26.7779C23.2899 26.9615 27.134 31.3368 23.2575 36.3784C23.2399 36.4009 23.2244 36.4251 23.2099 36.45H22.9499C21.8335 36.45 20.9249 37.3585 20.9249 38.475V39.2662C20.1394 39.5448 19.5749 40.2952 19.5749 41.175V46.575C19.5749 46.9483 19.8773 47.25 20.2499 47.25H33.7499C34.1224 47.25 34.4248 46.9483 34.4248 46.575V41.1749C34.4248 40.295 33.8604 39.5447 33.0748 39.266V38.4748C33.0748 37.3584 32.1663 36.4498 31.0498 36.4498H30.7896C30.7751 36.4249 30.7595 36.4008 30.7424 36.3782C26.8659 31.3367 30.7094 26.9613 30.9017 26.7467C31.189 26.3877 31.4648 26.0204 31.7311 25.6471ZM36.4499 10.125H42.51C42.246 16.1709 38.4587 21.5101 32.9325 23.797C32.9866 23.7051 33.0402 23.6129 33.0931 23.5204C33.142 23.4353 33.1902 23.3499 33.2382 23.2643C33.2563 23.2316 33.2748 23.1992 33.2928 23.1664C35.1922 19.7372 36.2618 15.9375 36.4266 12.0037C36.4266 12.0029 36.4266 12.0021 36.4266 12.0013C36.4336 11.8346 36.4391 11.6678 36.4428 11.5007C36.4432 11.4837 36.4437 11.4666 36.444 11.4496C36.4475 11.2766 36.4499 11.1037 36.4499 10.9303V10.125ZM21.0674 23.797C15.5411 21.5101 11.7538 16.171 11.4898 10.125H17.5497V10.9303C17.5497 10.9673 17.5507 11.0043 17.5509 11.0413C17.5514 11.1648 17.5525 11.2882 17.5548 11.4114C17.5559 11.4659 17.5575 11.5204 17.5589 11.575C17.562 11.6982 17.566 11.8213 17.5708 11.9442C17.5722 11.9788 17.5736 12.0136 17.5752 12.0482C17.7567 16.2087 18.95 20.2186 21.0674 23.797ZM20.9249 45.8998V44.5498H22.9499C23.3225 44.5498 23.6249 44.2481 23.6249 43.8748C23.6249 43.5015 23.3225 43.1999 22.9499 43.1999H20.9249V41.1749C20.9249 40.8023 21.228 40.4999 21.5999 40.4999H32.3998C32.7718 40.4999 33.0748 40.8023 33.0748 41.1749V41.8498H31.0498C30.6772 41.8498 30.3748 42.1515 30.3748 42.5248C30.3748 42.8981 30.6772 43.1998 31.0498 43.1998H33.0748V45.8997H20.9249V45.8998ZM31.7249 38.4749V39.1499H22.275V38.4749C22.275 38.1023 22.578 37.7999 22.9499 37.7999H23.6247H30.3746H31.0499C31.4218 37.7999 31.7249 38.1023 31.7249 38.4749ZM29.1407 36.4499H24.8592C28.5103 30.811 24.1714 25.9226 24.1518 25.9031C23.8442 25.5185 23.5494 25.1248 23.2671 24.7231C23.2583 24.7083 23.2508 24.6929 23.2408 24.6787C22.8084 24.0612 22.4075 23.4273 22.0377 22.7793C22.0167 22.7423 21.9956 22.7054 21.9748 22.6682C21.9337 22.5952 21.8932 22.5218 21.8529 22.4484C21.7904 22.3341 21.7281 22.2196 21.6675 22.1043C21.6653 22.1002 21.6631 22.096 21.661 22.0919C20.0293 18.9848 19.0858 15.534 18.9249 12.0109C18.9236 11.9806 18.9219 11.9504 18.9206 11.92C18.9158 11.8056 18.9127 11.6911 18.9095 11.5765C18.908 11.5209 18.9059 11.4655 18.9048 11.4099C18.903 11.3227 18.9028 11.2354 18.9019 11.1482C18.9013 11.0756 18.8999 11.003 18.8999 10.9303V9.44996C18.8999 9.44814 18.8996 9.4464 18.8996 9.44458V8.10002H35.0996V10.9303C35.0996 14.4814 34.2995 17.9875 32.8039 21.1645C32.7715 21.2329 32.7382 21.301 32.7052 21.3692C32.6791 21.4231 32.6532 21.4771 32.6268 21.5309C32.0886 22.618 31.4653 23.6699 30.7589 24.6786C30.7424 24.702 30.7287 24.7268 30.7156 24.7517C30.4468 25.1325 30.1673 25.5061 29.8757 25.8707C29.8292 25.9213 25.4897 30.8109 29.1407 36.4499Z" fill="white"/>
</svg>
