<svg width="54" height="54" viewBox="0 0 54 54" fill="none" xmlns="http://www.w3.org/2000/svg">
<mask id="mask0" mask-type="alpha" maskUnits="userSpaceOnUse" x="0" y="0" width="54" height="54">
<rect width="54" height="54" fill="#C4C4C4"/>
</mask>
<path d="M31.8 13.4C33.1255 13.4 34.2 12.3255 34.2 11C34.2 9.67449 33.1255 8.59998 31.8 8.59998C30.4745 8.59998 29.4 9.67449 29.4 11C29.4 12.3255 30.4745 13.4 31.8 13.4ZM31.8 10.2C32.2418 10.2 32.6 10.5581 32.6 11C32.6 11.4418 32.2418 11.8 31.8 11.8C31.3582 11.8 31 11.4418 31 11C31 10.5581 31.3582 10.2 31.8 10.2Z" fill="white"/>
<path d="M38.2 8.59998C36.8745 8.59998 35.8 9.67449 35.8 11C35.8 12.3255 36.8745 13.4 38.2 13.4C39.5255 13.4 40.6 12.3255 40.6 11C40.6 9.67449 39.5255 8.59998 38.2 8.59998ZM38.2 11.8C37.7582 11.8 37.4 11.4418 37.4 11C37.4 10.5581 37.7582 10.2 38.2 10.2C38.6418 10.2 39 10.5581 39 11C39 11.4418 38.6418 11.8 38.2 11.8Z" fill="white"/>
<path d="M39.56 15H30.4448C30.1593 14.9995 29.886 15.1159 29.6886 15.3223C29.4912 15.5286 29.3869 15.8068 29.4 16.092C29.5429 19.0808 32.0078 21.4306 35 21.4306C37.9922 21.4306 40.4571 19.0808 40.6 16.092C40.6143 15.8073 40.511 15.5292 40.3144 15.3228C40.1178 15.1163 39.8451 14.9996 39.56 15ZM37.8368 18.628C36.7934 19.6696 35.2628 20.0549 33.8506 19.6314C32.4384 19.2079 31.3724 18.0439 31.0744 16.6H38.9256C38.7687 17.3688 38.3886 18.0742 37.8328 18.628H37.8368Z" fill="white"/>
<path d="M47 3H23C20.792 3.00264 19.0026 4.79196 19 7V21.4C19.0026 23.608 20.792 25.3974 23 25.4H31.8V26.8888C29.3402 26.7045 26.9332 27.6668 25.2784 29.496L21.7584 33.4056C21.3034 33.9111 20.6553 34.1998 19.9752 34.2H16.6C16.6 32.8745 15.5255 31.8 14.2 31.8H5.4C4.07452 31.8 3 32.8745 3 34.2V47.8C3 49.1255 4.07452 50.2 5.4 50.2H14.2C15.2134 50.1958 16.115 49.5555 16.4528 48.6H21.184C21.557 48.5929 21.9213 48.7131 22.2168 48.9408C23.168 49.7096 25.472 51 30.2 51H39C40.2436 50.9995 41.3743 50.2787 41.8994 49.1514C42.4246 48.0242 42.2492 46.6948 41.4496 45.7424C42.2516 45.2597 42.802 44.4501 42.9559 43.5268C43.1098 42.6035 42.8517 41.6591 42.2496 40.9424C43.2143 40.3694 43.8037 39.3286 43.799 38.2066C43.7942 37.0845 43.1959 36.0488 42.2264 35.484C43.0436 34.5141 43.2136 33.1542 42.6603 32.013C42.107 30.8718 40.934 30.1631 39.6664 30.204H38.2V25.4H47C49.208 25.3974 50.9974 23.608 51 21.4V7C50.9974 4.79196 49.208 3.00264 47 3V3ZM35 23.8C29.6981 23.8 25.4 19.5019 25.4 14.2C25.4 8.89807 29.6981 4.6 35 4.6C40.3019 4.6 44.6 8.89807 44.6 14.2C44.5943 19.4996 40.2996 23.7943 35 23.8ZM20.6 21.4V7C20.6 5.67452 21.6745 4.6 23 4.6H29.2608C25.8771 6.61468 23.8039 10.2619 23.8039 14.2C23.8039 18.1381 25.8771 21.7853 29.2608 23.8H23C21.6745 23.8 20.6 22.7255 20.6 21.4ZM14.2 48.6H5.4C4.95817 48.6 4.6 48.2418 4.6 47.8V34.2C4.6 33.7582 4.95817 33.4 5.4 33.4H14.2C14.6418 33.4 15 33.7582 15 34.2V47.8C15 48.2418 14.6418 48.6 14.2 48.6ZM41.4 33.2816C41.433 33.7261 41.2791 34.1641 40.9754 34.4903C40.6717 34.8165 40.2457 35.0012 39.8 35H38.2C37.7582 35 37.4 35.3582 37.4 35.8C37.4 36.2418 37.7582 36.6 38.2 36.6H40.4648C41.1305 36.5552 41.7549 36.9251 42.0355 37.5305C42.3161 38.1358 42.1948 38.8514 41.7304 39.3304C41.4314 39.6316 41.0244 39.8007 40.6 39.8H38.2C37.7582 39.8 37.4 40.1582 37.4 40.6C37.4 41.0418 37.7582 41.4 38.2 41.4H39.8C40.6837 41.4 41.4 42.1163 41.4 43C41.4 43.8837 40.6837 44.6 39.8 44.6H37.4C36.9582 44.6 36.6 44.9582 36.6 45.4C36.6 45.8418 36.9582 46.2 37.4 46.2H39C39.8837 46.2 40.6 46.9163 40.6 47.8C40.6 48.6837 39.8837 49.4 39 49.4H30.2C25.96 49.4 24.0096 48.3328 23.2216 47.696C22.6414 47.2388 21.9226 46.9933 21.184 47H16.6V35.8H19.9752C21.1088 35.7992 22.1891 35.3181 22.948 34.476L26.468 30.5664C27.8176 29.0709 29.7944 28.3009 31.8 28.4896V30.2H30.2C29.7582 30.2 29.4 30.5582 29.4 31C29.4 31.4418 29.7582 31.8 30.2 31.8H39.6648C40.5373 31.7766 41.2864 32.4162 41.4 33.2816ZM36.6 30.2H33.4V25.4H36.6V30.2ZM49.4 21.4C49.4 22.7255 48.3255 23.8 47 23.8H40.7392C44.1229 21.7853 46.1961 18.1381 46.1961 14.2C46.1961 10.2619 44.1229 6.61468 40.7392 4.6H47C48.3255 4.6 49.4 5.67452 49.4 7V21.4Z" fill="white"/>
</svg>
