<svg width="28" height="28" viewBox="0 0 28 28" fill="none" xmlns="http://www.w3.org/2000/svg">
<mask id="mask0" mask-type="alpha" maskUnits="userSpaceOnUse" x="0" y="0" width="28" height="28">
<rect width="28" height="28" fill="#C4C4C4"/>
</mask>
<path d="M23.7221 2.33331H4.27771C3.18879 2.33331 2.33325 3.18885 2.33325 4.27777V23.7222C2.33325 24.8111 3.18879 25.6666 4.27771 25.6666H13.2222H17.8888H23.7222C24.811 25.6666 25.6666 24.8111 25.6666 23.7222V4.27777C25.6666 3.18885 24.811 2.33331 23.7221 2.33331ZM13.9999 24.8889V17.1111H10.8888V14H13.9999V11.2778C13.9999 9.06111 15.711 7.19444 17.8888 6.99998H21.3888V10.1111H18.2777C17.6165 10.1111 17.111 10.6166 17.111 11.2778V14H20.9999V17.1111H17.111V24.8889H13.9999V24.8889ZM24.8888 23.7222C24.8888 24.3833 24.3833 24.8889 23.7221 24.8889H17.8888V17.8889H21.7777V13.2222H17.8888V11.2777C17.8888 11.0444 18.0443 10.8889 18.2777 10.8889H22.1666V6.22219H17.8499C15.2444 6.45552 13.2221 8.67219 13.2221 11.2777V13.2222H10.111V17.8889H13.2221V24.8889H4.27771C3.61659 24.8889 3.11104 24.3833 3.11104 23.7222V4.27777C3.11104 3.61665 3.61659 3.11111 4.27771 3.11111H23.7222C24.3833 3.11111 24.8888 3.61665 24.8888 4.27777V23.7222H24.8888Z" fill="white" stroke="white" stroke-width="0.3"/>
</svg>
