<svg width="395" height="248" viewBox="0 0 395 248" fill="none" xmlns="http://www.w3.org/2000/svg">
<g opacity="0.05">
<path d="M167.539 55.1897V0L0.0556641 166.711H55.501L167.539 55.1897Z" fill="#332212"/>
<path d="M395 55.1897V0L300.716 93.8496L206.431 0V55.1897L300.716 149.039L395 55.1897Z" fill="#332212"/>
<path d="M395 109.944L337.861 166.819H395V109.944Z" fill="#332212"/>
<path d="M167.538 109.944L110.399 166.819H167.538V109.944Z" fill="#332212"/>
<path d="M206.431 109.944V166.819H263.625L206.431 109.944Z" fill="#332212"/>
<path d="M21.1402 201.674C19.2829 200.913 17.0979 200.532 14.5851 200.532C11.6353 200.532 9.12253 200.967 7.04674 201.837C4.97096 202.707 3.27755 203.577 2.13041 204.447L4.80708 208.525C5.29871 208.144 6.00885 207.709 6.88287 207.22C7.75688 206.731 8.8494 206.296 10.1058 205.915C11.3622 205.534 12.7825 205.371 14.3666 205.371C15.3499 205.371 16.2785 205.48 17.1525 205.643C18.0266 205.806 18.7913 206.133 19.4468 206.513C20.1023 206.948 20.6486 207.492 20.9764 208.199C21.3587 208.906 21.5226 209.83 21.5226 210.917V215.485C20.6486 214.941 19.5561 214.397 18.2451 213.962C16.7155 213.419 14.8036 213.147 12.4547 213.147C8.52164 213.147 5.46259 214.071 3.27755 215.92C1.09252 217.769 0 220.215 0 223.315C0 225.49 0.491633 227.284 1.52953 228.807C2.56742 230.329 3.87844 231.471 5.57184 232.286C7.26525 233.102 9.0679 233.483 10.9798 233.483C12.7278 233.483 14.4759 233.156 16.2785 232.504C18.0266 231.851 19.5561 230.873 20.7578 229.568C21.031 229.296 21.2495 228.97 21.468 228.643V232.83H26.9852V210.156C26.9852 208.09 26.4936 206.35 25.4557 204.936C24.4724 203.523 22.9975 202.435 21.1402 201.674ZM20.3208 224.837C19.5014 226.088 18.4089 227.067 17.0979 227.773C15.7323 228.48 14.2027 228.807 12.5093 228.807C11.1983 228.807 9.99654 228.589 8.95865 228.154C7.92076 227.719 7.10137 227.067 6.55511 226.197C5.95423 225.327 5.6811 224.293 5.6811 223.097C5.6811 221.955 5.95423 220.977 6.50048 220.161C7.04674 219.345 7.86613 218.693 9.01328 218.258C10.1604 217.823 11.5807 217.551 13.3833 217.551C15.2953 217.551 17.1525 217.769 18.8459 218.258C19.7746 218.53 20.6486 218.856 21.5226 219.291V220.487C21.5226 222.119 21.1402 223.587 20.3208 224.837Z" fill="#332212"/>
<path d="M61.0173 202.544C58.6683 201.239 55.9917 200.532 53.0965 200.532C50.4745 200.532 48.1802 201.184 46.159 202.544C44.5749 203.577 43.2638 204.991 42.2806 206.731V201.239H36.7087V248.001H42.226V227.393C43.2638 229.133 44.5749 230.546 46.1044 231.58C48.1256 232.885 50.4198 233.591 53.0419 233.591C55.9371 233.591 58.5591 232.939 60.9626 231.58C63.3115 230.275 65.2235 228.371 66.6437 225.87C68.064 223.369 68.7741 220.487 68.7741 217.062C68.7741 213.636 68.064 210.7 66.6437 208.199C65.2781 205.752 63.3662 203.849 61.0173 202.544ZM61.782 223.206C60.7988 224.892 59.4877 226.197 57.849 227.067C56.2102 227.937 54.4075 228.372 52.441 228.372C50.8022 228.372 49.2181 227.937 47.6885 227.067C46.1044 226.197 44.848 224.892 43.8101 223.206C42.7722 221.52 42.2806 219.454 42.2806 217.007C42.2806 214.56 42.7722 212.494 43.8101 210.809C44.848 209.123 46.1044 207.818 47.6885 206.948C49.2727 206.078 50.8568 205.643 52.441 205.643C54.4075 205.643 56.2102 206.078 57.849 206.948C59.4877 207.818 60.7988 209.123 61.782 210.809C62.7653 212.494 63.2569 214.56 63.2569 217.007C63.2569 219.454 62.7653 221.52 61.782 223.206Z" fill="#332212"/>
<path d="M89.368 200.532C87.8931 200.532 86.4182 201.13 84.998 202.272C84.124 202.979 83.3046 203.849 82.6491 204.882V201.239H77.1318V232.885H82.6491V213.636C82.6491 212.114 82.8129 210.754 83.0861 209.558C83.3592 208.362 83.9055 207.438 84.7248 206.731C85.4896 206.024 86.5821 205.698 87.9478 205.698C88.8764 205.698 89.6412 205.806 90.2421 206.078C90.843 206.35 91.4985 206.731 92.2632 207.274L95.3223 202.761C94.5029 201.891 93.5742 201.293 92.591 201.021C91.6077 200.695 90.5152 200.532 89.368 200.532Z" fill="#332212"/>
<path d="M105.319 184.382C104.281 184.382 103.407 184.763 102.642 185.47C101.878 186.177 101.495 187.101 101.495 188.134C101.495 189.167 101.878 190.037 102.642 190.798C103.407 191.56 104.281 191.94 105.319 191.94C106.357 191.94 107.285 191.56 107.996 190.798C108.706 190.037 109.088 189.167 109.088 188.134C109.088 187.101 108.706 186.177 107.996 185.47C107.285 184.763 106.411 184.382 105.319 184.382Z" fill="#332212"/>
<path d="M108.105 201.238H102.587V232.884H108.105V201.238Z" fill="#332212"/>
<path d="M142.246 202.653C139.788 201.239 137.002 200.532 133.833 200.532C130.774 200.532 127.989 201.239 125.476 202.653C122.963 204.066 120.996 206.024 119.576 208.471C118.101 210.972 117.391 213.799 117.391 217.007C117.391 220.161 118.101 222.988 119.576 225.49C121.051 227.991 123.018 229.948 125.476 231.362C127.989 232.776 130.774 233.483 133.833 233.483C136.947 233.483 139.788 232.776 142.246 231.362C144.704 229.948 146.671 227.991 148.091 225.49C149.566 222.988 150.276 220.161 150.276 217.007C150.276 213.799 149.566 210.972 148.091 208.471C146.671 206.024 144.704 204.066 142.246 202.653ZM143.284 222.88C142.355 224.565 141.044 225.925 139.405 226.903C137.767 227.882 135.909 228.372 133.833 228.372C131.758 228.372 129.9 227.882 128.262 226.903C126.623 225.925 125.312 224.565 124.383 222.88C123.455 221.194 122.963 219.237 122.963 217.062C122.963 214.887 123.455 212.875 124.383 211.189C125.312 209.449 126.623 208.144 128.262 207.166C129.9 206.187 131.758 205.698 133.833 205.698C135.909 205.698 137.767 206.187 139.405 207.166C141.044 208.144 142.355 209.449 143.284 211.189C144.212 212.929 144.704 214.887 144.704 217.062C144.704 219.237 144.212 221.194 143.284 222.88Z" fill="#332212"/>
<path d="M170.815 200.532C169.34 200.532 167.866 201.13 166.445 202.272C165.571 202.979 164.752 203.849 164.096 204.882V201.239H158.579V232.885H164.096V213.636C164.096 212.114 164.26 210.754 164.533 209.558C164.806 208.362 165.353 207.438 166.172 206.731C166.937 206.024 168.029 205.698 169.395 205.698C170.324 205.698 171.088 205.806 171.689 206.078C172.29 206.35 172.946 206.731 173.71 207.274L176.77 202.761C175.95 201.891 175.022 201.293 174.038 201.021C173.055 200.695 171.962 200.532 170.815 200.532Z" fill="#332212"/>
<path d="M186.766 184.382C185.728 184.382 184.854 184.763 184.09 185.47C183.325 186.177 182.942 187.101 182.942 188.134C182.942 189.167 183.325 190.037 184.09 190.798C184.854 191.56 185.728 191.94 186.766 191.94C187.804 191.94 188.733 191.56 189.443 190.798C190.153 190.037 190.535 189.167 190.535 188.134C190.535 187.101 190.153 186.177 189.443 185.47C188.733 184.763 187.804 184.382 186.766 184.382Z" fill="#332212"/>
<path d="M189.552 201.238H184.035V232.884H189.552V201.238Z" fill="#332212"/>
<path d="M213.587 213.962H199.767V219.127H213.587V213.962Z" fill="#332212"/>
<path d="M261.877 201.945C260.347 200.967 258.49 200.477 256.36 200.477C254.229 200.477 252.372 200.967 250.678 201.945C249.04 202.924 247.619 204.392 246.527 206.404C245.817 204.501 244.615 203.087 243.031 202.054C241.447 201.021 239.535 200.532 237.35 200.532C235.383 200.532 233.635 200.967 232.215 201.837C230.74 202.707 229.538 204.012 228.61 205.806V201.184H223.092V232.83H228.61V213.581C228.61 211.95 228.883 210.536 229.484 209.34C230.084 208.144 230.958 207.22 232.051 206.622C233.143 206.023 234.454 205.697 235.984 205.697C238.06 205.697 239.589 206.35 240.573 207.6C241.556 208.905 242.048 210.863 242.048 213.581V232.83H247.565V213.581C247.565 211.95 247.838 210.536 248.439 209.34C249.04 208.144 249.914 207.22 251.006 206.622C252.099 206.023 253.41 205.697 254.939 205.697C257.015 205.697 258.545 206.35 259.528 207.6C260.511 208.905 261.003 210.863 261.003 213.581V232.83H266.52V212.875C266.52 210.265 266.138 208.035 265.318 206.187C264.553 204.338 263.406 202.924 261.877 201.945Z" fill="#332212"/>
<path d="M298.64 202.489C296.4 201.184 293.724 200.532 290.61 200.532C287.496 200.532 284.71 201.239 282.361 202.598C280.013 203.958 278.155 205.915 276.844 208.362C275.533 210.863 274.878 213.745 274.878 217.007C274.878 220.27 275.533 223.152 276.79 225.598C278.046 228.1 279.849 230.003 282.088 231.416C284.383 232.83 287.005 233.537 289.954 233.537C293.341 233.537 296.346 232.885 298.804 231.525C301.317 230.166 303.392 228.154 305.031 225.49L300.552 222.662C299.405 224.565 297.984 226.033 296.346 226.958C294.707 227.882 292.795 228.372 290.61 228.372C288.425 228.372 286.622 227.937 285.093 227.012C283.563 226.088 282.416 224.783 281.651 223.043C281.05 221.738 280.668 220.161 280.559 218.421H305.577C305.577 218.312 305.577 218.095 305.632 217.769C305.632 217.442 305.687 217.116 305.687 216.79C305.687 213.419 305.086 210.537 303.884 208.144C302.573 205.643 300.88 203.794 298.64 202.489ZM285.147 206.676C286.622 205.806 288.425 205.317 290.555 205.317C292.358 205.317 293.942 205.698 295.253 206.513C296.564 207.274 297.657 208.362 298.421 209.721C299.077 210.863 299.405 212.222 299.514 213.691H280.723C280.941 212.494 281.269 211.461 281.706 210.482C282.525 208.851 283.672 207.601 285.147 206.676Z" fill="#332212"/>
<path d="M337.807 202.543C335.458 201.238 332.781 200.531 329.886 200.531C327.264 200.531 324.97 201.184 322.948 202.543C321.364 203.576 320.053 204.99 319.07 206.73V179.271H313.553V232.884H319.07V227.392C320.108 229.132 321.419 230.546 322.948 231.579C324.97 232.884 327.264 233.591 329.886 233.591C332.781 233.591 335.403 232.938 337.807 231.579C340.156 230.274 342.068 228.371 343.488 225.87C344.908 223.369 345.618 220.487 345.618 217.061C345.618 213.636 344.908 210.699 343.488 208.198C342.068 205.751 340.21 203.848 337.807 202.543ZM338.572 223.205C337.588 224.891 336.277 226.196 334.638 227.066C333 227.936 331.197 228.371 329.23 228.371C327.592 228.371 326.007 227.936 324.478 227.066C322.894 226.196 321.637 224.891 320.599 223.205C319.562 221.52 319.07 219.454 319.07 217.007C319.07 214.56 319.562 212.494 320.599 210.808C321.637 209.123 322.894 207.818 324.478 206.948C326.062 206.078 327.646 205.643 329.23 205.643C331.197 205.643 333 206.078 334.638 206.948C336.277 207.818 337.588 209.123 338.572 210.808C339.555 212.494 340.046 214.56 340.046 217.007C340.046 219.454 339.555 221.52 338.572 223.205Z" fill="#332212"/>
<path d="M374.897 202.489C372.658 201.184 369.981 200.532 366.867 200.532C363.754 200.532 360.968 201.239 358.619 202.598C356.27 203.958 354.413 205.915 353.102 208.362C351.791 210.863 351.135 213.745 351.135 217.007C351.135 220.27 351.791 223.152 353.047 225.598C354.304 228.1 356.106 230.003 358.346 231.416C360.64 232.83 363.262 233.537 366.212 233.537C369.599 233.537 372.603 232.885 375.061 231.525C377.574 230.166 379.65 228.154 381.289 225.49L376.809 222.662C375.662 224.565 374.242 226.033 372.603 226.958C370.964 227.882 369.053 228.372 366.867 228.372C364.682 228.372 362.88 227.937 361.35 227.012C359.821 226.088 358.674 224.783 357.909 223.043C357.308 221.738 356.926 220.161 356.816 218.421H381.835C381.835 218.312 381.835 218.095 381.89 217.769C381.89 217.442 381.944 217.116 381.944 216.79C381.944 213.419 381.343 210.537 380.142 208.144C378.831 205.643 377.137 203.794 374.897 202.489ZM361.405 206.676C362.88 205.806 364.682 205.317 366.813 205.317C368.616 205.317 370.2 205.698 371.511 206.513C372.822 207.274 373.914 208.362 374.679 209.721C375.334 210.863 375.662 212.222 375.771 213.691H356.98C357.199 212.494 357.526 211.461 357.963 210.482C358.783 208.851 359.93 207.601 361.405 206.676Z" fill="#332212"/>
<path d="M395 179.217H389.483V232.83H395V179.217Z" fill="#332212"/>
</g>
</svg>
