<svg width="54" height="54" viewBox="0 0 54 54" fill="none" xmlns="http://www.w3.org/2000/svg">
<mask id="mask0" mask-type="alpha" maskUnits="userSpaceOnUse" x="0" y="0" width="54" height="54">
<rect width="54" height="54" fill="#C4C4C4"/>
</mask>

<path d="M42.2603 17.9333H29.2667V11.7397C29.2657 10.7793 28.4874 10.0009 27.527 10H11.7397C10.7793 10.0009 10.0009 10.7793 10 11.7397V21.2937C10.0007 22.2388 10.7551 23.0109 11.7 23.0333V25.572C11.7004 25.9001 11.8873 26.1995 12.1819 26.3439C12.4765 26.4883 12.8276 26.4527 13.0872 26.252L17.2924 23.0333H24.7333V27.5667H11.7391C10.779 27.5676 10.0009 28.3457 10 29.3058V38.8609C10.0007 39.806 10.7552 40.5779 11.7 40.6V43.1404C11.6995 43.4689 11.8863 43.769 12.1813 43.9135C12.4762 44.0581 12.8278 44.022 13.0872 43.8204L17.2919 40.6H27.5276C28.4877 40.5991 29.2657 39.821 29.2667 38.8609V32.6667H36.7076L40.9049 35.8814C41.1637 36.0869 41.5175 36.126 41.8149 35.9818C42.1124 35.8377 42.3009 35.5359 42.3 35.2053V32.6667C43.2447 32.6442 43.999 31.8725 44 30.9276V19.673C43.9991 18.7126 43.2207 17.9343 42.2603 17.9333ZM15.1 21.9C14.787 21.9 14.5333 22.1537 14.5333 22.4667C14.5333 22.7796 14.787 23.0333 15.1 23.0333H15.4287L12.8333 25.0212V23.0333C13.1463 23.0333 13.4 22.7796 13.4 22.4667C13.4 22.1537 13.1463 21.9 12.8333 21.9H11.7397C11.4049 21.8997 11.1336 21.6284 11.1333 21.2937V11.7397C11.1336 11.4049 11.4049 11.1336 11.7397 11.1333H27.527C27.8617 11.1336 28.133 11.4049 28.1333 11.7397V17.9333H26.473C25.5126 17.9343 24.7343 18.7126 24.7333 19.673V21.9H15.1ZM28.1333 38.8609C28.133 39.1953 27.862 39.4664 27.5276 39.4667H15.1C14.787 39.4667 14.5333 39.7204 14.5333 40.0333C14.5333 40.3463 14.787 40.6 15.1 40.6H15.4275L12.8333 42.5833V40.6C13.1463 40.6 13.4 40.3463 13.4 40.0333C13.4 39.7204 13.1463 39.4667 12.8333 39.4667H11.7391C11.4047 39.4664 11.1336 39.1953 11.1333 38.8609V29.3058C11.1336 28.9713 11.4047 28.7003 11.7391 28.7H27.5276C27.862 28.7003 28.133 28.9713 28.1333 29.3058V38.8609ZM42.8667 30.9276C42.866 31.2621 42.5949 31.533 42.2603 31.5333H41.1667C40.8537 31.5333 40.6 31.787 40.6 32.1C40.6 32.413 40.8537 32.6667 41.1667 32.6667V34.6545L38.5713 32.6667H38.9C39.213 32.6667 39.4667 32.413 39.4667 32.1C39.4667 31.787 39.213 31.5333 38.9 31.5333H29.2667V29.3058C29.2657 28.3457 28.4877 27.5676 27.5276 27.5667H25.8667V19.673C25.867 19.3383 26.1383 19.067 26.473 19.0667H42.2603C42.5951 19.067 42.8664 19.3383 42.8667 19.673V30.9276Z" fill="#7A7A7A"/>
<path d="M19.0666 12.2668C17.8148 12.2668 16.8 13.2817 16.8 14.5335C16.8 14.8465 17.0537 15.1002 17.3667 15.1002C17.6796 15.1002 17.9333 14.8465 17.9333 14.5335C17.9333 13.9076 18.4407 13.4002 19.0666 13.4002C19.6926 13.4002 20.2 13.9076 20.2 14.5335C20.2 15.1594 19.6926 15.6668 19.0666 15.6668C18.7537 15.6668 18.5 15.9206 18.5 16.2335V17.3668C18.5 17.6798 18.7537 17.9335 19.0666 17.9335C19.3796 17.9335 19.6333 17.6798 19.6333 17.3668V16.7288C20.7396 16.4443 21.4614 15.3811 21.3175 14.2479C21.1736 13.1148 20.2089 12.2657 19.0666 12.2668Z" fill="#7A7A7A"/>
<path d="M19.0667 20.2002C19.3796 20.2002 19.6333 19.9465 19.6333 19.6336C19.6333 19.3206 19.3796 19.0669 19.0667 19.0669C18.7537 19.0669 18.5 19.3206 18.5 19.6336C18.5 19.9465 18.7537 20.2002 19.0667 20.2002Z" fill="#7A7A7A"/>
<path d="M19.0666 29.8335C17.8148 29.8335 16.8 30.8483 16.8 32.1002C16.8 32.4131 17.0537 32.6668 17.3667 32.6668C17.6796 32.6668 17.9333 32.4131 17.9333 32.1002C17.9333 31.4742 18.4407 30.9668 19.0666 30.9668C19.6926 30.9668 20.2 31.4742 20.2 32.1002C20.2 32.7261 19.6926 33.2335 19.0666 33.2335C18.7537 33.2335 18.5 33.4872 18.5 33.8002V34.9335C18.5 35.2465 18.7537 35.5002 19.0666 35.5002C19.3796 35.5002 19.6333 35.2465 19.6333 34.9335V34.2954C20.7396 34.011 21.4614 32.9478 21.3175 31.8146C21.1736 30.6814 20.2089 29.8324 19.0666 29.8335Z" fill="#7A7A7A"/>
<path d="M19.0667 37.7664C19.3796 37.7664 19.6333 37.5127 19.6333 37.1997C19.6333 36.8868 19.3796 36.6331 19.0667 36.6331C18.7537 36.6331 18.5 36.8868 18.5 37.1997C18.5 37.5127 18.7537 37.7664 19.0667 37.7664Z" fill="#7A7A7A"/>
<path d="M34.8958 21.1301C34.8119 20.9107 34.6014 20.7659 34.3665 20.7659C34.1317 20.7659 33.9212 20.9107 33.8373 21.1301L31.0039 28.4967C30.9313 28.6858 30.965 28.8993 31.0924 29.0568C31.2198 29.2143 31.4216 29.2919 31.6217 29.2603C31.8218 29.2287 31.9898 29.0927 32.0625 28.9036L33.0122 26.4335H35.7209L36.6706 28.9036C36.7829 29.1959 37.111 29.3418 37.4033 29.2294C37.6956 29.1171 37.8415 28.7891 37.7291 28.4967C37.1347 26.9526 35.7917 23.4579 34.8958 21.1301ZM33.448 25.3002L34.3665 22.9122L35.2851 25.3002H33.448Z" fill="#7A7A7A"/>
</svg>
