<svg width="54" height="54" viewBox="0 0 54 54" fill="none" xmlns="http://www.w3.org/2000/svg">
<mask id="mask0" mask-type="alpha" maskUnits="userSpaceOnUse" x="0" y="0" width="54" height="54">
<rect width="54" height="54" fill="#C4C4C4"/>
</mask>

<path d="M46.0143 19.4739C46.0073 19.4553 45.9998 19.4384 45.9914 19.421C45.9637 19.3616 45.9271 19.3073 45.8826 19.2596C45.8776 19.254 45.8744 19.2476 45.8692 19.2424C45.8282 19.2017 45.782 19.1671 45.7319 19.1389L40.0142 15.9623C39.8147 15.8521 39.5716 15.8567 39.3765 15.9742L27.0017 23.4755L14.6235 15.9742C14.4284 15.8562 14.185 15.8515 13.9858 15.9623L8.26805 19.1389C8.21774 19.1671 8.1715 19.2017 8.13079 19.2424C8.12555 19.2476 8.12235 19.254 8.11741 19.2593C8.07292 19.3073 8.03627 19.3619 8.00836 19.421C8.00021 19.4384 7.99236 19.4553 7.98567 19.4736C7.95863 19.5414 7.9435 19.6132 7.94118 19.6862L7.94176 19.6911L7.94118 19.694V27.9529C7.94118 28.1783 8.0607 28.3868 8.25497 28.5008L26.6786 39.3008L26.6801 39.3013L26.6842 39.3045C26.7234 39.3255 26.7647 39.3423 26.8075 39.3548C26.8174 39.358 26.8261 39.3639 26.836 39.3665C26.9433 39.3956 27.0564 39.3956 27.1637 39.3665C27.1821 39.3615 27.1986 39.3514 27.2167 39.3447C27.2507 39.3339 27.2841 39.3202 27.3158 39.304L27.3179 39.3022L27.3214 39.3008L45.745 28.5008C45.9393 28.3868 46.0588 28.1783 46.0588 27.9529V19.694L46.0582 19.6911L46.0588 19.6862C46.0565 19.6132 46.0414 19.5414 46.0143 19.4739ZM39.7194 17.2521L44.1435 19.7097L32.0357 26.8338C32.0241 26.8402 31.975 26.8655 31.9633 26.8722L27 29.7946L22.9548 27.4146L39.7194 17.2521ZM22.5529 28.6526L26.3646 30.8953V33.5016L22.5529 31.2149V28.6526ZM14.2804 17.2521L25.7757 24.2185L21.7127 26.6814L9.85619 19.7097L14.2804 17.2521ZM9.21175 20.8049L21.2823 27.9026V31.5741C21.2858 31.5991 21.2907 31.6238 21.2974 31.6483C21.3015 31.6907 21.3099 31.7326 21.3227 31.7736C21.3361 31.812 21.3535 31.8489 21.3745 31.8841C21.3931 31.9181 21.4149 31.9507 21.4396 31.9807C21.4693 32.0141 21.5024 32.0443 21.5385 32.0708C21.5551 32.0877 21.5728 32.104 21.5914 32.1188L26.3646 34.9827V37.6446L9.21175 27.5888V20.8049ZM27.6354 34.9827L31.4471 32.6958V35.4094L27.6354 37.644V34.9827ZM32.7177 34.6652V31.5741C32.7177 31.559 32.7101 31.5462 32.709 31.5311C32.6979 31.447 32.675 31.3647 32.6409 31.2868C32.6345 31.2743 32.6345 31.2603 32.627 31.2478C32.6121 31.2292 32.5959 31.2112 32.5787 31.1946C32.4792 31.0565 32.3245 30.9683 32.155 30.9535C32.1311 30.9471 32.107 30.9422 32.0823 30.939C32.0672 30.939 32.0546 30.9462 32.0398 30.9474C31.9555 30.9584 31.8732 30.9814 31.7952 31.0154C31.7824 31.0218 31.7685 31.0218 31.756 31.0294L27.6354 33.5016V30.895L32.5738 27.9857C32.5854 27.9796 32.6345 27.954 32.6456 27.9476L44.7883 20.8049V27.5888L32.7177 34.6652Z" fill="#7A7A7A"/>
</svg>
