<svg width="54" height="54" viewBox="0 0 54 54"  xmlns="http://www.w3.org/2000/svg">
<mask id="mask0" mask-type="alpha" maskUnits="userSpaceOnUse" x="0" y="0" width="54" height="54">
<rect width="54" height="54" fill="#C4C4C4"/>
</mask>

<path d="M44 13.3762C44.0021 12.9145 43.8183 12.4713 43.49 12.1466L41.8535 10.51C41.5302 10.1833 41.0896 9.99961 40.63 10H40.6244C40.1676 10.0003 39.73 10.1841 39.41 10.51L31.9867 17.9333H17.3667V11.7C17.3667 10.7611 16.6055 10 15.6667 10H14.5333C12.0308 10.0028 10.0028 12.0308 10 14.5333V39.6089C10.1418 42.0924 12.2103 44.0258 14.6977 44H42.3C43.2389 44 44 43.2389 44 42.3V19.6334C44 18.6945 43.2389 17.9333 42.3 17.9333H40.1467L43.49 14.59C43.8153 14.2698 43.999 13.8327 44 13.3762ZM30.2754 24.1667C30.1554 24.183 30.0349 24.1408 29.9512 24.0534C29.8669 23.9695 29.8252 23.852 29.8379 23.7338L30.0526 21.8071C30.0617 21.7668 30.073 21.7271 30.0867 21.6881L32.3188 23.9202C32.2819 23.9282 32.2485 23.9463 32.2099 23.9508L30.2754 24.1667ZM33.2441 23.2413L30.7643 20.761L36.941 14.5844L39.4196 17.0624L33.2441 23.2413ZM37.7401 13.7825L38.5804 12.9427L41.0579 15.4207L40.2181 16.2611L37.7401 13.7825ZM11.1333 14.5333C11.1352 12.6564 12.6564 11.1352 14.5333 11.1333H15.6667C15.9796 11.1333 16.2334 11.387 16.2334 11.7V34.3666C16.2334 34.6796 15.9797 34.9333 15.6667 34.9333H14.5333C13.2315 34.9329 11.9926 35.4932 11.1333 36.4712V14.5333ZM42.3 19.0667C42.6129 19.0667 42.8667 19.3204 42.8667 19.6334V42.3C42.8667 42.613 42.613 42.8667 42.3 42.8667H14.6977C12.827 42.8981 11.2598 41.458 11.1333 39.5913V39.4667C11.1352 37.5897 12.6564 36.0686 14.5333 36.0667H15.6667C16.6055 36.0667 17.3666 35.3056 17.3666 34.3667V19.0667H30.8533L29.5664 20.3536C29.2071 20.7076 28.9811 21.1747 28.9266 21.6761L28.7119 23.6068C28.6942 23.7951 28.7121 23.9849 28.7646 24.1666H19.0667C18.7537 24.1666 18.5 24.4203 18.5 24.7333C18.5 25.0463 18.7537 25.3 19.0667 25.3H20.7667V40.6C20.7667 40.9129 21.0204 41.1667 21.3334 41.1667C21.6464 41.1667 21.9001 40.913 21.9001 40.6V32.6667H28.1334V37.2H24.1667C23.8537 37.2 23.6 37.4537 23.6 37.7666C23.6 38.0796 23.8537 38.3333 24.1667 38.3333H35.5C36.126 38.3333 36.6333 37.8259 36.6333 37.2V28.7C36.6333 28.3871 36.3797 28.1333 36.0667 28.1333C35.7538 28.1333 35.5 28.387 35.5 28.7V31.5333H21.9V25.3H30.2346C30.2898 25.3001 30.3451 25.2971 30.4 25.291L32.3363 25.0705C32.8278 25.0148 33.2865 24.7964 33.6397 24.45L39.0162 19.0667H42.3V19.0667ZM35.5 32.6667V37.2H29.2667V32.6667H35.5ZM42.691 13.7864L41.8591 14.6189L39.3817 12.1414L40.2141 11.309C40.323 11.1972 40.4723 11.1339 40.6283 11.1333C40.7872 11.1337 40.9393 11.1978 41.0505 11.3113L42.6893 12.9467C42.8033 13.0589 42.8672 13.2123 42.8667 13.3723C42.8662 13.5283 42.8029 13.6776 42.691 13.7864Z" />
</svg>
