<svg width="28" height="28" viewBox="0 0 28 28"  xmlns="http://www.w3.org/2000/svg">
<mask id="mask0" mask-type="alpha" maskUnits="userSpaceOnUse" x="0" y="0" width="28" height="28">
<rect width="28" height="28" fill="#C4C4C4"/>
</mask><path d="M23.6091 2.33337H4.39074C3.25632 2.33337 2.33325 3.25645 2.33325 4.39086V23.6092C2.33325 24.7439 3.25632 25.6667 4.39074 25.6667H23.6091C24.7438 25.6667 25.6666 24.7439 25.6666 23.6092V4.39086C25.6666 3.25645 24.7438 2.33337 23.6091 2.33337ZM4.39074 3.31069H23.6091C24.2048 3.31069 24.6893 3.79519 24.6893 4.39086V9.88336H20.5161C19.1477 7.72496 16.7393 6.28831 13.9999 6.28831C11.2605 6.28831 8.85192 7.72521 7.48369 9.8836H3.31056V4.39111C3.31056 3.79519 3.79507 3.31069 4.39074 3.31069ZM13.9999 7.26562C17.7132 7.26562 20.7343 10.2867 20.7343 14C20.7343 17.7133 17.7132 20.7345 13.9999 20.7345C10.2864 20.7345 7.2655 17.7133 7.2655 14C7.2655 10.2865 10.2864 7.26562 13.9999 7.26562ZM23.6091 24.6894H4.39074C3.79507 24.6894 3.31056 24.2049 3.31056 23.6092V10.8607H6.95863C6.5291 11.8204 6.28819 12.8822 6.28819 14C6.28819 18.2523 9.74763 21.7118 13.9999 21.7118C18.2522 21.7118 21.7116 18.2523 21.7116 14C21.7116 12.8822 21.4707 11.8204 21.0412 10.8607H24.6893V23.6092C24.6893 24.2049 24.2048 24.6894 23.6091 24.6894Z" fill="white"/>
<path d="M14 18.1167C16.2698 18.1167 18.1167 16.2698 18.1167 14C18.1167 11.7299 16.2698 9.8833 14 9.8833C11.7299 9.8833 9.8833 11.7299 9.8833 14C9.8833 16.2698 11.7299 18.1167 14 18.1167ZM14 10.8606C15.731 10.8606 17.1394 12.2689 17.1394 14C17.1394 15.731 15.731 17.1394 14 17.1394C12.2689 17.1394 10.8606 15.731 10.8606 14C10.8606 12.2689 12.2689 10.8606 14 10.8606Z" fill="white"/>
</svg>
