<svg width="77" height="48" viewBox="0 0 77 48" fill="none" xmlns="http://www.w3.org/2000/svg">
<path d="M32.4776 10.6819V0L0.0107422 32.2666H10.7589L32.4776 10.6819Z" />
<path d="M76.5714 10.6819V0L58.2943 18.1644L40.0171 0V10.6819L58.2943 28.8463L76.5714 10.6819Z" />
<path d="M76.5714 21.2795L65.495 32.2876H76.5714V21.2795Z" />
<path d="M32.4774 21.2795L21.401 32.2876H32.4774V21.2795Z" />
<path d="M40.0171 21.2795V32.2876H51.1041L40.0171 21.2795Z" />
<path d="M4.09807 39.0336C3.73803 38.8862 3.31446 38.8126 2.82735 38.8126C2.25553 38.8126 1.76842 38.8968 1.36602 39.0651C0.963629 39.2335 0.63536 39.4019 0.412984 39.5703L0.931861 40.3596C1.02716 40.2859 1.16483 40.2017 1.33426 40.107C1.50368 40.0123 1.71547 39.9281 1.95903 39.8544C2.20258 39.7808 2.4779 39.7492 2.78499 39.7492C2.9756 39.7492 3.15562 39.7702 3.32505 39.8018C3.49448 39.8334 3.64273 39.8965 3.7698 39.9702C3.89687 40.0544 4.00277 40.1596 4.0663 40.2964C4.14043 40.4333 4.17219 40.6122 4.17219 40.8226V41.7067C4.00277 41.6014 3.79098 41.4962 3.53684 41.412C3.24033 41.3068 2.86971 41.2541 2.41437 41.2541C1.65194 41.2541 1.05893 41.433 0.63536 41.7909C0.211787 42.1487 0 42.6223 0 43.2221C0 43.6431 0.0953039 43.9904 0.296501 44.285C0.497698 44.5797 0.751842 44.8007 1.08011 44.9586C1.40838 45.1164 1.75783 45.1901 2.12845 45.1901C2.46731 45.1901 2.80617 45.127 3.15562 45.0007C3.49448 44.8744 3.79098 44.685 4.02394 44.4324C4.07689 44.3798 4.11925 44.3166 4.16161 44.2535V45.0638H5.23113V40.6753C5.23113 40.2754 5.13582 39.9386 4.93463 39.665C4.74402 39.3914 4.45811 39.1809 4.09807 39.0336ZM3.93923 43.5168C3.78039 43.7588 3.5686 43.9483 3.31446 44.0851C3.04973 44.2219 2.75323 44.285 2.42496 44.285C2.17081 44.285 1.93785 44.2429 1.73665 44.1588C1.53545 44.0746 1.37661 43.9483 1.27072 43.7799C1.15424 43.6115 1.10129 43.4116 1.10129 43.18C1.10129 42.959 1.15424 42.7696 1.26013 42.6117C1.36602 42.4539 1.52486 42.3276 1.74724 42.2434C1.96961 42.1592 2.24494 42.1066 2.59439 42.1066C2.96501 42.1066 3.32505 42.1487 3.65332 42.2434C3.83334 42.296 4.00277 42.3592 4.17219 42.4433V42.6749C4.17219 42.9906 4.09807 43.2747 3.93923 43.5168Z" />
<path d="M11.8282 39.202C11.3729 38.9494 10.854 38.8126 10.2928 38.8126C9.78448 38.8126 9.33973 38.9389 8.94792 39.202C8.64083 39.4019 8.38669 39.6755 8.19608 40.0123V38.9494H7.11597V48H8.18549V44.0114C8.38669 44.3482 8.64083 44.6218 8.93733 44.8218C9.32914 45.0743 9.77389 45.2112 10.2822 45.2112C10.8434 45.2112 11.3517 45.0849 11.8176 44.8218C12.273 44.5692 12.6436 44.2009 12.9189 43.7168C13.1942 43.2326 13.3319 42.6749 13.3319 42.0119C13.3319 41.3488 13.1942 40.7806 12.9189 40.2964C12.6542 39.8229 12.2836 39.4545 11.8282 39.202ZM11.9765 43.2011C11.7859 43.5273 11.5317 43.7799 11.214 43.9483C10.8964 44.1167 10.5469 44.2009 10.1657 44.2009C9.84801 44.2009 9.54092 44.1167 9.24442 43.9483C8.93733 43.7799 8.69378 43.5273 8.49258 43.2011C8.29138 42.8748 8.19608 42.4749 8.19608 42.0013C8.19608 41.5278 8.29138 41.1278 8.49258 40.8016C8.69378 40.4754 8.93733 40.2228 9.24442 40.0544C9.55151 39.886 9.8586 39.8018 10.1657 39.8018C10.5469 39.8018 10.8964 39.886 11.214 40.0544C11.5317 40.2228 11.7859 40.4754 11.9765 40.8016C12.1671 41.1278 12.2624 41.5278 12.2624 42.0013C12.2624 42.4749 12.1671 42.8748 11.9765 43.2011Z" />
<path d="M17.3242 38.8126C17.0382 38.8126 16.7523 38.9283 16.477 39.1493C16.3076 39.2861 16.1487 39.4545 16.0217 39.6545V38.9494H14.9521V45.0743H16.0217V41.3488C16.0217 41.0542 16.0534 40.7911 16.1064 40.5595C16.1593 40.328 16.2652 40.1491 16.4241 40.0123C16.5723 39.8755 16.7841 39.8123 17.0488 39.8123C17.2289 39.8123 17.3771 39.8334 17.4936 39.886C17.6101 39.9386 17.7371 40.0123 17.8854 40.1175L18.4784 39.244C18.3196 39.0757 18.1395 38.9599 17.9489 38.9073C17.7583 38.8441 17.5465 38.8126 17.3242 38.8126Z" />
<path d="M20.4162 35.6868C20.215 35.6868 20.0456 35.7605 19.8973 35.8973C19.7491 36.0341 19.6749 36.213 19.6749 36.413C19.6749 36.6129 19.7491 36.7813 19.8973 36.9287C20.0456 37.076 20.215 37.1497 20.4162 37.1497C20.6174 37.1497 20.7974 37.076 20.9351 36.9287C21.0727 36.7813 21.1468 36.6129 21.1468 36.413C21.1468 36.213 21.0727 36.0341 20.9351 35.8973C20.7974 35.7605 20.628 35.6868 20.4162 35.6868Z" />
<path d="M20.9562 38.9494H19.8867V45.0743H20.9562V38.9494Z" />
<path d="M27.5746 39.223C27.0981 38.9494 26.558 38.8126 25.9439 38.8126C25.3509 38.8126 24.8108 38.9494 24.3237 39.223C23.8366 39.4966 23.4554 39.8755 23.18 40.3491C22.8941 40.8332 22.7565 41.3804 22.7565 42.0013C22.7565 42.6117 22.8941 43.159 23.18 43.6431C23.466 44.1272 23.8472 44.506 24.3237 44.7797C24.8108 45.0533 25.3509 45.1901 25.9439 45.1901C26.5474 45.1901 27.0981 45.0533 27.5746 44.7797C28.0511 44.506 28.4323 44.1272 28.7077 43.6431C28.9936 43.159 29.1312 42.6117 29.1312 42.0013C29.1312 41.3804 28.9936 40.8332 28.7077 40.3491C28.4323 39.8755 28.0511 39.4966 27.5746 39.223ZM27.7758 43.1379C27.5958 43.4642 27.3416 43.7273 27.024 43.9167C26.7063 44.1061 26.3462 44.2009 25.9439 44.2009C25.5415 44.2009 25.1814 44.1061 24.8637 43.9167C24.5461 43.7273 24.2919 43.4642 24.1119 43.1379C23.9319 42.8117 23.8366 42.4328 23.8366 42.0119C23.8366 41.5909 23.9319 41.2015 24.1119 40.8753C24.2919 40.5385 24.5461 40.2859 24.8637 40.0965C25.1814 39.9071 25.5415 39.8123 25.9439 39.8123C26.3462 39.8123 26.7063 39.9071 27.024 40.0965C27.3416 40.2859 27.5958 40.5385 27.7758 40.8753C27.9558 41.212 28.0511 41.5909 28.0511 42.0119C28.0511 42.4328 27.9558 42.8117 27.7758 43.1379Z" />
<path d="M33.1129 38.8126C32.8269 38.8126 32.541 38.9283 32.2657 39.1493C32.0963 39.2861 31.9374 39.4545 31.8104 39.6545V38.9494H30.7408V45.0743H31.8104V41.3488C31.8104 41.0542 31.8421 40.7911 31.8951 40.5595C31.948 40.328 32.0539 40.1491 32.2128 40.0123C32.361 39.8755 32.5728 39.8123 32.8375 39.8123C33.0176 39.8123 33.1658 39.8334 33.2823 39.886C33.3988 39.9386 33.5258 40.0123 33.6741 40.1175L34.2671 39.244C34.1083 39.0757 33.9282 38.9599 33.7376 38.9073C33.547 38.8441 33.3352 38.8126 33.1129 38.8126Z" />
<path d="M36.2049 35.6868C36.0037 35.6868 35.8343 35.7605 35.686 35.8973C35.5377 36.0341 35.4636 36.213 35.4636 36.413C35.4636 36.6129 35.5377 36.7813 35.686 36.9287C35.8343 37.076 36.0037 37.1497 36.2049 37.1497C36.4061 37.1497 36.5861 37.076 36.7238 36.9287C36.8614 36.7813 36.9355 36.6129 36.9355 36.413C36.9355 36.213 36.8614 36.0341 36.7238 35.8973C36.5861 35.7605 36.4061 35.6868 36.2049 35.6868Z" />
<path d="M36.7449 38.9494H35.6754V45.0743H36.7449V38.9494Z" />
<path d="M41.4043 41.4119H38.7252V42.4116H41.4043V41.4119Z" />
<path d="M50.7653 39.0861C50.4688 38.8967 50.1087 38.802 49.6957 38.802C49.2828 38.802 48.9227 38.8967 48.5944 39.0861C48.2768 39.2756 48.0014 39.5597 47.7897 39.9491C47.652 39.5808 47.419 39.3072 47.1119 39.1072C46.8048 38.9072 46.4342 38.8125 46.0106 38.8125C45.6294 38.8125 45.2906 38.8967 45.0152 39.0651C44.7293 39.2335 44.4964 39.4861 44.3163 39.8334V38.9388H43.2468V45.0638H44.3163V41.3383C44.3163 41.0226 44.3693 40.7489 44.4858 40.5174C44.6023 40.2859 44.7717 40.107 44.9835 39.9912C45.1953 39.8754 45.4494 39.8123 45.7459 39.8123C46.1483 39.8123 46.4448 39.9386 46.6354 40.1806C46.826 40.4332 46.9213 40.8121 46.9213 41.3383V45.0638H47.9909V41.3383C47.9909 41.0226 48.0438 40.7489 48.1603 40.5174C48.2768 40.2859 48.4462 40.107 48.658 39.9912C48.8698 39.8754 49.1239 39.8123 49.4204 39.8123C49.8228 39.8123 50.1193 39.9386 50.3099 40.1806C50.5005 40.4332 50.5958 40.8121 50.5958 41.3383V45.0638H51.6653V41.2015C51.6653 40.6963 51.5912 40.2648 51.4324 39.907C51.2841 39.5492 51.0618 39.2756 50.7653 39.0861Z" />
<path d="M57.8919 39.1914C57.4577 38.9388 56.9388 38.8126 56.3352 38.8126C55.7317 38.8126 55.1916 38.9494 54.7363 39.2125C54.2809 39.4756 53.9209 39.8544 53.6667 40.328C53.4126 40.8121 53.2855 41.3699 53.2855 42.0013C53.2855 42.6328 53.4126 43.1905 53.6561 43.6641C53.8997 44.1482 54.2491 44.5166 54.6833 44.7902C55.1281 45.0638 55.6363 45.2006 56.2082 45.2006C56.8647 45.2006 57.4471 45.0743 57.9236 44.8112C58.4108 44.5481 58.8131 44.1588 59.1308 43.6431L58.2625 43.0958C58.0401 43.4642 57.7648 43.7483 57.4471 43.9272C57.1294 44.1061 56.7588 44.2009 56.3352 44.2009C55.9117 44.2009 55.5622 44.1167 55.2657 43.9378C54.9692 43.7588 54.7468 43.5063 54.5986 43.1695C54.4821 42.9169 54.408 42.6117 54.3868 42.275H59.2367C59.2367 42.2539 59.2367 42.2118 59.2473 42.1487C59.2473 42.0855 59.2579 42.0224 59.2579 41.9592C59.2579 41.3068 59.1414 40.749 58.9084 40.2859C58.6543 39.8018 58.326 39.444 57.8919 39.1914ZM55.2763 40.0018C55.5622 39.8334 55.9117 39.7387 56.3247 39.7387C56.6741 39.7387 56.9812 39.8123 57.2353 39.9702C57.4895 40.1175 57.7013 40.328 57.8495 40.5911C57.9766 40.8121 58.0401 41.0752 58.0613 41.3594H54.4186C54.4609 41.1278 54.5245 40.9279 54.6092 40.7385C54.768 40.4227 54.9904 40.1807 55.2763 40.0018Z" />
<path d="M65.4844 39.2019C65.029 38.9494 64.5102 38.8125 63.9489 38.8125C63.4406 38.8125 62.9959 38.9388 62.6041 39.2019C62.297 39.4019 62.0428 39.6755 61.8522 40.0123V34.6977H60.7827V45.0743H61.8522V44.0114C62.0534 44.3482 62.3076 44.6218 62.6041 44.8218C62.9959 45.0743 63.4406 45.2111 63.9489 45.2111C64.5102 45.2111 65.0185 45.0849 65.4844 44.8218C65.9397 44.5692 66.3104 44.2008 66.5857 43.7167C66.861 43.2326 66.9987 42.6749 66.9987 42.0118C66.9987 41.3488 66.861 40.7805 66.5857 40.2964C66.3104 39.8229 65.9503 39.4545 65.4844 39.2019ZM65.6326 43.2011C65.442 43.5273 65.1879 43.7799 64.8702 43.9483C64.5525 44.1167 64.2031 44.2008 63.8219 44.2008C63.5042 44.2008 63.1971 44.1167 62.9006 43.9483C62.5935 43.7799 62.3499 43.5273 62.1487 43.2011C61.9475 42.8748 61.8522 42.4749 61.8522 42.0013C61.8522 41.5277 61.9475 41.1278 62.1487 40.8016C62.3499 40.4753 62.5935 40.2228 62.9006 40.0544C63.2077 39.886 63.5148 39.8018 63.8219 39.8018C64.2031 39.8018 64.5525 39.886 64.8702 40.0544C65.1879 40.2228 65.442 40.4753 65.6326 40.8016C65.8232 41.1278 65.9186 41.5277 65.9186 42.0013C65.9186 42.4749 65.8232 42.8748 65.6326 43.2011Z" />
<path d="M72.6746 39.1914C72.2404 38.9388 71.7215 38.8126 71.118 38.8126C70.5144 38.8126 69.9743 38.9494 69.519 39.2125C69.0636 39.4756 68.7036 39.8544 68.4494 40.328C68.1953 40.8121 68.0682 41.3699 68.0682 42.0013C68.0682 42.6328 68.1953 43.1905 68.4389 43.6641C68.6824 44.1482 69.0319 44.5166 69.466 44.7902C69.9108 45.0638 70.4191 45.2006 70.9909 45.2006C71.6474 45.2006 72.2298 45.0743 72.7064 44.8112C73.1935 44.5481 73.5959 44.1588 73.9135 43.6431L73.0452 43.0958C72.8228 43.4642 72.5475 43.7483 72.2298 43.9272C71.9122 44.1061 71.5415 44.2009 71.118 44.2009C70.6944 44.2009 70.3449 44.1167 70.0484 43.9378C69.7519 43.7588 69.5296 43.5063 69.3813 43.1695C69.2648 42.9169 69.1907 42.6117 69.1695 42.275H74.0194C74.0194 42.2539 74.0194 42.2118 74.03 42.1487C74.03 42.0855 74.0406 42.0224 74.0406 41.9592C74.0406 41.3068 73.9241 40.749 73.6912 40.2859C73.437 39.8018 73.1087 39.444 72.6746 39.1914ZM70.059 40.0018C70.3449 39.8334 70.6944 39.7387 71.1074 39.7387C71.4568 39.7387 71.7639 39.8123 72.018 39.9702C72.2722 40.1175 72.484 40.328 72.6322 40.5911C72.7593 40.8121 72.8228 41.0752 72.844 41.3594H69.2013C69.2437 41.1278 69.3072 40.9279 69.3919 40.7385C69.5507 40.4227 69.7731 40.1807 70.059 40.0018Z" />
<path d="M76.5715 34.6871H75.502V45.0638H76.5715V34.6871Z" />
</svg>
