<svg width="18" height="18" viewBox="0 0 18 18" fill="none" xmlns="http://www.w3.org/2000/svg">
<path d="M9.97302 7.05396H8.02707V5.10802C8.02707 4.92899 7.88178 4.78369 7.70275 4.78369C7.52372 4.78369 7.37842 4.92899 7.37842 5.10802V7.05396H5.43248C5.25345 7.05396 5.10815 7.19926 5.10815 7.37829C5.10815 7.55731 5.25345 7.70261 5.43248 7.70261H7.37842V9.64856C7.37842 9.82758 7.52372 9.97288 7.70275 9.97288C7.88178 9.97288 8.02707 9.82758 8.02707 9.64856V7.70261H9.97302C10.152 7.70261 10.2973 7.55731 10.2973 7.37829C10.2973 7.19926 10.152 7.05396 9.97302 7.05396Z" fill="black"/>
<path d="M17.3419 17.1965L12.5228 12.1847C13.752 10.9519 14.5135 9.25246 14.5135 7.37819C14.5135 3.62252 11.4583 0.567383 7.70266 0.567383C3.94698 0.567383 0.891846 3.62252 0.891846 7.37819C0.891846 11.1339 3.94698 14.189 7.70266 14.189C9.3512 14.189 10.8642 13.5997 12.0434 12.6219L16.8742 17.646C16.9378 17.7125 17.0228 17.7455 17.1081 17.7455C17.1891 17.7455 17.2699 17.7154 17.3328 17.6551C17.4619 17.5308 17.4658 17.3255 17.3419 17.1965ZM1.54049 7.37819C1.54049 3.98025 4.30471 1.21603 7.70266 1.21603C11.1006 1.21603 13.8648 3.98025 13.8648 7.37819C13.8648 10.7761 11.1006 13.5404 7.70266 13.5404C4.30471 13.5404 1.54049 10.7761 1.54049 7.37819Z" fill="black"/>
</svg>
