<svg width="24" height="24" viewBox="0 0 24 24"  xmlns="http://www.w3.org/2000/svg">
<mask id="mask0" mask-type="alpha" maskUnits="userSpaceOnUse" x="0" y="0" width="24" height="24">
<rect width="24" height="24" fill="#C4C4C4"/>
</mask>

<path d="M2 5V5.76367V18.5697V19.3333H22V18.5697V5.76367V5H2ZM14.2083 12.3547L12.393 14.1787C12.1723 14.3837 11.827 14.3833 11.6157 14.1873L9.79133 12.3547L9.80733 12.339L3.21567 5.66667H20.7887L14.1923 12.3393L14.2083 12.3547ZM8.84133 12.3443L2.66667 18.285V6.141L8.84133 12.3443ZM9.31133 12.8167L11.1523 14.6663C11.3887 14.8867 11.692 14.9973 11.9967 14.9973C12.3043 14.9973 12.6133 14.8843 12.857 14.6573L14.689 12.8167L20.768 18.6667H3.22867L9.31133 12.8167ZM15.159 12.3447L21.3333 6.14067V18.285L15.159 12.3447Z" fill="#F5B316"/>

</svg>
