<svg width="20" height="20" viewBox="0 0 20 20" fill="none" xmlns="http://www.w3.org/2000/svg">
<path d="M17.3932 14.1436L15.5265 16.8236L14.2098 15.7436C14.0665 15.6269 13.8565 15.6469 13.7398 15.7902C13.6232 15.9336 13.6432 16.1436 13.7865 16.2602L15.3832 17.5702C15.4432 17.6202 15.5165 17.6469 15.5932 17.6469C15.6098 17.6469 15.6232 17.6469 15.6398 17.6436C15.7332 17.6302 15.8132 17.5802 15.8665 17.5036L17.9365 14.5269C18.0432 14.3769 18.0032 14.1669 17.8532 14.0636C17.7065 13.9536 17.4965 13.9902 17.3932 14.1436Z" fill="#F5B316"/>
<path d="M10.3333 8.67329V5.29329C10.3333 5.10996 10.1833 4.95996 10 4.95996C9.81667 4.95996 9.66667 5.10996 9.66667 5.29329V8.67329C9.18667 8.79663 8.81 9.17996 8.7 9.66663H6.33333C6.15 9.66663 6 9.81663 6 9.99996C6 10.1833 6.15 10.3333 6.33333 10.3333H8.72667C8.89 10.8866 9.39667 11.2933 10 11.2933C10.7367 11.2933 11.3333 10.6966 11.3333 9.95996C11.3333 9.33996 10.9067 8.82329 10.3333 8.67329ZM10 10.6266C9.63333 10.6266 9.33333 10.3266 9.33333 9.95996C9.33333 9.59329 9.63333 9.29329 10 9.29329C10.3667 9.29329 10.6667 9.59329 10.6667 9.95996C10.6667 10.3266 10.3667 10.6266 10 10.6266Z" fill="#F5B316"/>
<path d="M10.0003 3.29297C10.1837 3.29297 10.3337 3.14297 10.3337 2.95964V2.6263C10.3337 2.44297 10.1837 2.29297 10.0003 2.29297C9.81699 2.29297 9.66699 2.44297 9.66699 2.6263V2.95964C9.66699 3.14297 9.81699 3.29297 10.0003 3.29297Z" fill="#F5B316"/>
<path d="M10.0003 16.627C9.81699 16.627 9.66699 16.777 9.66699 16.9603V17.2936C9.66699 17.477 9.81699 17.627 10.0003 17.627C10.1837 17.627 10.3337 17.477 10.3337 17.2936V16.9603C10.3337 16.777 10.1837 16.627 10.0003 16.627Z" fill="#F5B316"/>
<path d="M16.9998 10.2936H17.3332C17.5165 10.2936 17.6665 10.1436 17.6665 9.96029C17.6665 9.77695 17.5165 9.62695 17.3332 9.62695H16.9998C16.8165 9.62695 16.6665 9.77695 16.6665 9.96029C16.6665 10.1436 16.8165 10.2936 16.9998 10.2936Z" fill="#F5B316"/>
<path d="M2.99967 9.62695H2.66634C2.48301 9.62695 2.33301 9.77695 2.33301 9.96029C2.33301 10.1436 2.48301 10.2936 2.66634 10.2936H2.99967C3.18301 10.2936 3.33301 10.1436 3.33301 9.96029C3.33301 9.77695 3.18301 9.62695 2.99967 9.62695Z" fill="#F5B316"/>
<path d="M14.95 5.34322C15.0366 5.34322 15.12 5.30988 15.1866 5.24655L15.4233 5.00988C15.5533 4.87988 15.5533 4.66988 15.4233 4.53988C15.2933 4.40988 15.0833 4.40988 14.9533 4.53988L14.7166 4.77655C14.5866 4.90655 14.5866 5.11655 14.7166 5.24655C14.78 5.30988 14.8633 5.34322 14.95 5.34322Z" fill="#F5B316"/>
<path d="M4.81317 14.6737L4.5765 14.9103C4.4465 15.0403 4.4465 15.2503 4.5765 15.3803C4.64317 15.447 4.7265 15.477 4.81317 15.477C4.89984 15.477 4.98317 15.4437 5.04984 15.3803L5.2865 15.1437C5.4165 15.0137 5.4165 14.8037 5.2865 14.6737C5.1565 14.5437 4.94317 14.5437 4.81317 14.6737Z" fill="#F5B316"/>
<path d="M5.04992 4.53988C4.91992 4.40988 4.70992 4.40988 4.57992 4.53988C4.44992 4.66988 4.44992 4.87988 4.57992 5.00988L4.81659 5.24655C4.88326 5.31322 4.96659 5.34322 5.05326 5.34322C5.13992 5.34322 5.22326 5.30988 5.28992 5.24655C5.41992 5.11655 5.41992 4.90655 5.28992 4.77655L5.04992 4.53988Z" fill="#F5B316"/>
<path d="M20 10C20 4.48667 15.5133 0 10 0C4.48667 0 0 4.48667 0 10C0 15.5133 4.48667 20 10 20C11.1833 20 12.3433 19.79 13.45 19.3833C14.1 19.7733 14.8567 20 15.6667 20C18.0567 20 20 18.0567 20 15.6667C20 14.8567 19.7733 14.1 19.3833 13.45C19.79 12.3433 20 11.1833 20 10ZM12.79 18.9067C11.89 19.19 10.9533 19.3333 10 19.3333C4.85333 19.3333 0.666667 15.1467 0.666667 10C0.666667 4.85333 4.85333 0.666667 10 0.666667C15.1467 0.666667 19.3333 4.85333 19.3333 10C19.3333 10.9533 19.19 11.89 18.9067 12.7933C18.88 12.7633 18.85 12.7367 18.8233 12.71C18.77 12.65 18.7133 12.5933 18.6567 12.54C18.6033 12.49 18.55 12.4433 18.4967 12.3933C18.4433 12.3467 18.39 12.3033 18.3333 12.26C18.2733 12.2133 18.21 12.1667 18.1467 12.12C18.0933 12.0833 18.0367 12.0467 17.98 12.01C17.9133 11.9667 17.8467 11.9267 17.78 11.8867C17.72 11.8533 17.66 11.8233 17.6 11.7933C17.5333 11.76 17.4633 11.7233 17.3933 11.6933C17.3233 11.6633 17.2533 11.6367 17.1833 11.6133C17.1167 11.59 17.0533 11.5633 16.9867 11.54C16.9067 11.5133 16.8233 11.4933 16.74 11.4733C16.68 11.4567 16.6233 11.44 16.5633 11.4267C16.4633 11.4067 16.3633 11.3933 16.2633 11.3767C16.2167 11.37 16.17 11.36 16.1233 11.3567C15.97 11.3433 15.82 11.3333 15.6667 11.3333C13.2767 11.3333 11.3333 13.2767 11.3333 15.6667C11.3333 15.82 11.3433 15.9733 11.3567 16.12C11.3633 16.1667 11.3733 16.2133 11.38 16.2633C11.3933 16.3633 11.4067 16.4633 11.4267 16.5633C11.44 16.6233 11.4567 16.6833 11.4733 16.7433C11.4933 16.8267 11.5133 16.91 11.54 16.99C11.56 17.0567 11.5867 17.1233 11.6133 17.19C11.64 17.26 11.6633 17.33 11.6933 17.3967C11.7233 17.4667 11.76 17.5367 11.7933 17.6033C11.8233 17.6633 11.8533 17.7233 11.8867 17.7833C11.9267 17.8533 11.9667 17.92 12.01 17.9867C12.0467 18.0433 12.08 18.0967 12.1167 18.15C12.1633 18.2133 12.21 18.2767 12.2567 18.3367C12.3 18.39 12.3433 18.4433 12.3867 18.4967C12.4333 18.5533 12.4833 18.6067 12.5333 18.66C12.5867 18.7167 12.6433 18.77 12.7 18.8267C12.7367 18.85 12.76 18.88 12.79 18.9067ZM15.6667 19.3333C14.9233 19.3333 14.2333 19.11 13.6567 18.73C13.5333 18.65 13.42 18.5633 13.31 18.47C13.29 18.4533 13.27 18.4333 13.2533 18.4167C13.17 18.3433 13.09 18.2667 13.0167 18.1867C12.9833 18.1533 12.95 18.1167 12.92 18.08C12.86 18.0133 12.8033 17.94 12.75 17.87C12.72 17.83 12.69 17.7933 12.66 17.7533C12.5933 17.6567 12.53 17.5533 12.47 17.45C12.4533 17.4233 12.44 17.3967 12.4267 17.3667C12.37 17.26 12.32 17.1533 12.2767 17.0433C12.26 17 12.2433 16.9567 12.23 16.9133C12.1967 16.8267 12.17 16.7367 12.1433 16.6467C12.13 16.6 12.1167 16.5533 12.1067 16.5067C12.0833 16.4133 12.0667 16.3167 12.0533 16.22C12.0467 16.1767 12.04 16.1367 12.0333 16.0933C12.01 15.95 12 15.81 12 15.6667C12 13.6433 13.6433 12 15.6667 12C15.81 12 15.95 12.01 16.09 12.0267C16.1333 12.0333 16.1767 12.04 16.2167 12.0467C16.3133 12.06 16.41 12.08 16.5033 12.1C16.55 12.11 16.6 12.1233 16.6467 12.1367C16.7367 12.16 16.8267 12.19 16.9133 12.2233C16.9567 12.24 17 12.2533 17.0433 12.27C17.1533 12.3133 17.26 12.3633 17.3667 12.42C17.3933 12.4333 17.4233 12.45 17.45 12.4667C17.5533 12.5233 17.6533 12.5867 17.7533 12.6567C17.7933 12.6833 17.8333 12.7167 17.87 12.7467C17.9433 12.8 18.0133 12.8567 18.08 12.9167C18.1167 12.95 18.1533 12.98 18.1867 13.0133C18.2667 13.09 18.3433 13.1667 18.4133 13.25C18.43 13.27 18.45 13.2867 18.4667 13.31C18.56 13.42 18.6467 13.5367 18.7267 13.6567C19.11 14.2333 19.3333 14.9233 19.3333 15.6667C19.3333 17.69 17.69 19.3333 15.6667 19.3333Z" fill="#F5B316"/>
</svg>
