<svg width="24" height="24" viewBox="0 0 24 24" fill="none" xmlns="http://www.w3.org/2000/svg">
<mask id="mask0" mask-type="alpha" maskUnits="userSpaceOnUse" x="0" y="0" width="24" height="24">
<rect width="24" height="24" fill="#C4C4C4"/>
</mask>
<g mask="url(#mask0)">
<path d="M16.0499 22C15.4771 21.9979 14.9071 21.9222 14.3536 21.7747C11.8646 21.1236 9.44513 19.1189 7.16179 15.8164C7.14738 15.7953 7.1354 15.7727 7.12608 15.7489C7.1071 15.7319 7.09024 15.7126 7.07585 15.6916C4.79251 12.389 3.77211 9.41693 4.04252 6.85848C4.3141 4.28472 5.8031 2.99784 6.43103 2.56378C7.13118 2.07987 7.72615 1.91033 8.25009 2.04416C9.08878 2.26001 9.54521 3.17994 10.077 4.24508C10.1212 4.33404 10.1663 4.42417 10.2124 4.51549C10.6798 5.44522 10.7591 6.12457 10.4698 6.7164C10.1896 7.2894 9.59544 7.71247 8.8482 8.20776C8.63666 8.34708 8.50754 8.55155 8.45338 8.83255C8.34938 9.36905 8.52324 10.1669 8.95573 11.1457C9.40745 12.1661 10.0048 13.0845 10.3203 13.5397C10.6359 13.995 11.2842 14.8792 12.0793 15.6625C12.8403 16.4125 13.5271 16.8576 14.0656 16.9498C14.3477 16.9981 14.5848 16.9498 14.7897 16.8015C15.5157 16.2764 16.1213 15.8702 16.7563 15.8105C17.4125 15.7489 18.0196 16.0632 18.7245 16.8289C18.7935 16.904 18.862 16.9781 18.9297 17.0511C19.7386 17.9235 20.4372 18.6766 20.3426 19.5377C20.2837 20.0754 19.9148 20.5722 19.215 21.0561C18.7413 21.3846 17.6389 22 16.0499 22ZM7.66061 15.3796C7.67937 15.3968 7.69622 15.416 7.71085 15.4369C8.88234 17.1315 10.1029 18.4851 11.3384 19.4596C12.3917 20.2904 13.4631 20.8521 14.5224 21.1291C16.7594 21.7143 18.2841 20.8897 18.8359 20.5083C19.3673 20.1413 19.6432 19.8018 19.6797 19.4663C19.7409 18.9082 19.1381 18.2583 18.4403 17.5059C18.372 17.4322 18.3031 17.3575 18.2335 17.2818C17.106 16.055 16.5675 16.3399 15.1829 17.3431C14.8297 17.5986 14.4164 17.6876 13.9545 17.6088C12.2371 17.314 10.3199 14.7108 9.77362 13.9196C9.22731 13.1284 7.46909 10.4161 7.80033 8.705C7.88706 8.24504 8.11861 7.89183 8.48046 7.65046C9.90863 6.70856 10.3643 6.3055 9.61624 4.8165C9.56993 4.72427 9.5248 4.63322 9.48006 4.54178C9.02127 3.62499 8.62881 2.83144 8.08408 2.69133C7.75833 2.60773 7.34193 2.74549 6.81054 3.11283C6.25874 3.49627 4.94871 4.62969 4.70421 6.92873C4.58921 8.01741 4.73639 9.21834 5.14141 10.4974C5.61668 11.9974 6.45144 13.6174 7.62294 15.3121C7.63794 15.3331 7.65058 15.3558 7.66061 15.3796Z" fill="#F5B316"/>
</g>
</svg>
