<svg width="24" height="24" viewBox="0 0 24 24" fill="none" xmlns="http://www.w3.org/2000/svg">
<mask id="mask0" mask-type="alpha" maskUnits="userSpaceOnUse" x="0" y="0" width="24" height="24">
<rect width="24" height="24" fill="#C4C4C4"/>
</mask>
<g mask="url(#mask0)">
<path d="M12 10.6667C13.2866 10.6667 14.3333 9.61967 14.3333 8.33333C14.3333 7.047 13.2866 6 12 6C10.7133 6 9.66663 7.047 9.66663 8.33333C9.66663 9.61967 10.7133 10.6667 12 10.6667ZM12 6.66667C12.919 6.66667 13.6666 7.41433 13.6666 8.33333C13.6666 9.25233 12.919 10 12 10C11.081 10 10.3333 9.25233 10.3333 8.33333C10.3333 7.41433 11.081 6.66667 12 6.66667Z" fill="#F5B316"/>
<path d="M11.9409 20.2523L17.0546 12.8667C18.9726 10.3097 18.6953 6.10667 16.4609 3.87267C15.2536 2.665 13.6483 2 11.9409 2C10.2336 2 8.62826 2.665 7.42093 3.87233C5.1866 6.10633 4.90926 10.3093 6.8196 12.8563L11.9409 20.2523ZM7.89226 4.34367C8.97393 3.26233 10.4116 2.66667 11.9409 2.66667C13.4703 2.66667 14.9079 3.26233 15.9896 4.34367C18.0063 6.36 18.2546 10.156 16.5139 12.4767L11.9409 19.081L7.3606 12.4667C5.62726 10.156 5.87593 6.36 7.89226 4.34367Z" fill="#F5B316"/>
<path d="M16.039 16.3356C15.8557 16.3133 15.6903 16.4446 15.669 16.6276C15.6477 16.8106 15.7783 16.9763 15.961 16.9976C19.4663 17.4103 21.3333 18.5223 21.3333 19.1666C21.3333 20.0713 17.7827 21.3333 12 21.3333C6.21733 21.3333 2.66667 20.0713 2.66667 19.1666C2.66667 18.5223 4.53367 17.4103 8.039 16.9976C8.22167 16.9763 8.35233 16.8103 8.331 16.6276C8.30933 16.4446 8.144 16.3126 7.961 16.3356C4.45133 16.7489 2 17.9129 2 19.1666C2 20.5746 5.435 21.9999 12 21.9999C18.565 21.9999 22 20.5746 22 19.1666C22 17.9129 19.5487 16.7489 16.039 16.3356Z" fill="#F5B316"/>
</g>
</svg>
