<svg width="24" height="24" viewBox="0 0 24 24" fill="none" xmlns="http://www.w3.org/2000/svg">
<mask id="mask0" mask-type="alpha" maskUnits="userSpaceOnUse" x="0" y="0" width="24" height="24">
<rect width="24" height="24" fill="#C4C4C4"/>
</mask>

<path d="M21.8295 21.0074L16.4162 15.5941C17.6691 14.1516 18.43 12.2711 18.43 10.215C18.43 5.6854 14.7448 2 10.2149 2C5.68499 2 2 5.68564 2 10.2152C2 14.7448 5.68499 18.43 10.2149 18.43C12.2708 18.43 14.1513 17.6691 15.5936 16.4162L21.0075 21.8297C21.121 21.9432 21.2699 22 21.4187 22C21.5674 22 21.7163 21.9432 21.8295 21.8297C22.0568 21.6027 22.0568 21.2344 21.8295 21.0074ZM3.16312 10.215C3.16312 6.32651 6.32657 3.1631 10.2149 3.1631C14.1034 3.1631 17.2669 6.32674 17.2669 10.215C17.2669 14.1032 14.1034 17.2666 10.2149 17.2666C6.32657 17.2666 3.16312 14.1032 3.16312 10.215Z" fill="white"/>
</svg>
